<svg width="20" height="20" viewBox="0 0 20 20" fill="none" xmlns="http://www.w3.org/2000/svg">
<path d="M4 3.95566C4 2.86069 4.89499 1.93372 6.02998 2.00372C10.4769 2.27771 14.3769 3.77366 17.4319 6.69056C18.2989 7.51754 18.1279 8.86849 17.2289 9.55847L16.9849 9.74646L16.5879 9.30548L16.5809 9.29848C13.6449 6.28358 9.38995 4.51364 4.87099 4.51364H4V3.95566V3.95566ZM4 5.5126V16.4992C4 17.7312 5.40599 18.4372 6.39498 17.7002L8.00296 16.5022V16.5042C8.00296 16.7694 8.10832 17.0238 8.29585 17.2113C8.48339 17.3988 8.73774 17.5042 9.00295 17.5042C9.26817 17.5042 9.52252 17.3988 9.71005 17.2113C9.89759 17.0238 10.0029 16.7694 10.0029 16.5042V14.5023C10.004 14.3755 10.0531 14.2538 10.1404 14.1619C10.2278 14.07 10.3468 14.0147 10.4734 14.0072C10.5999 13.9997 10.7246 14.0406 10.8222 14.1215C10.9198 14.2025 10.983 14.3175 10.9989 14.4433V15.0033C10.9989 15.2685 11.1043 15.5228 11.2918 15.7104C11.4794 15.8979 11.7337 16.0032 11.9989 16.0032C12.2641 16.0032 12.5185 15.8979 12.706 15.7104C12.8936 15.5228 12.9989 15.2685 12.9989 15.0033V12.7654C13.8239 12.1604 15.0849 11.2014 16.1889 10.3574L15.8579 9.98845C13.1189 7.18055 9.12995 5.5126 4.86999 5.5126H4ZM8.24796 8.25451C8.2479 8.35267 8.2285 8.44986 8.19087 8.54052C8.15324 8.63118 8.09813 8.71355 8.02867 8.78291C7.95921 8.85227 7.87677 8.90728 7.78606 8.94478C7.69534 8.98228 7.59813 9.00155 7.49997 9.00149C7.40181 9.00142 7.30462 8.98202 7.21395 8.9444C7.12329 8.90677 7.04092 8.85166 6.97156 8.7822C6.90219 8.71275 6.84719 8.63031 6.80968 8.5396C6.77218 8.44888 6.75291 8.35167 6.75297 8.25351C6.75297 8.05527 6.83173 7.86515 6.97191 7.72497C7.11209 7.58479 7.30222 7.50604 7.50047 7.50604C7.69872 7.50604 7.88884 7.58479 8.02903 7.72497C8.16921 7.86515 8.24796 8.05527 8.24796 8.25351V8.25451ZM11.2229 10.2544C11.2229 10.4527 11.1442 10.6428 11.004 10.783C10.8638 10.9232 10.6737 11.0019 10.4754 11.0019C10.2772 11.0019 10.0871 10.9232 9.94688 10.783C9.8067 10.6428 9.72795 10.4527 9.72795 10.2544C9.72795 10.0562 9.8067 9.86608 9.94688 9.7259C10.0871 9.58572 10.2772 9.50697 10.4754 9.50697C10.6737 9.50697 10.8638 9.58572 11.004 9.7259C11.1442 9.86608 11.2229 10.0562 11.2229 10.2544V10.2544ZM8.25596 12.7564C8.25596 12.9557 8.17679 13.1468 8.03585 13.2877C7.89492 13.4287 7.70378 13.5078 7.50447 13.5078C7.30516 13.5078 7.11401 13.4287 6.97308 13.2877C6.83215 13.1468 6.75297 12.9557 6.75297 12.7564C6.75297 12.5571 6.83215 12.3659 6.97308 12.225C7.11401 12.0841 7.30516 12.0049 7.50447 12.0049C7.70378 12.0049 7.89492 12.0841 8.03585 12.225C8.17679 12.3659 8.25596 12.5571 8.25596 12.7564V12.7564Z" fill="#FFB661"/>
<path d="M7.49997 9.002C7.69822 9.002 7.88834 8.92324 8.02853 8.78305C8.16871 8.64286 8.24746 8.45273 8.24746 8.25447C8.24746 8.05621 8.16871 7.86607 8.02853 7.72589C7.88834 7.5857 7.69822 7.50694 7.49997 7.50694C7.30172 7.50694 7.11159 7.5857 6.97141 7.72589C6.83123 7.86607 6.75247 8.05621 6.75247 8.25447C6.75247 8.45273 6.83123 8.64286 6.97141 8.78305C7.11159 8.92324 7.30172 9.002 7.49997 9.002ZM11.2229 10.255C11.2229 10.4533 11.1442 10.6434 11.004 10.7836C10.8638 10.9238 10.6737 11.0026 10.4754 11.0026C10.2772 11.0026 10.0871 10.9238 9.94688 10.7836C9.8067 10.6434 9.72795 10.4533 9.72795 10.255C9.72795 10.0568 9.8067 9.86665 9.94688 9.72646C10.0871 9.58628 10.2772 9.50752 10.4754 9.50752C10.6737 9.50752 10.8638 9.58628 11.004 9.72646C11.1442 9.86665 11.2229 10.0568 11.2229 10.255ZM7.50397 13.5082C7.70314 13.5082 7.89416 13.429 8.035 13.2882C8.17584 13.1474 8.25496 12.9563 8.25496 12.7571C8.25496 12.558 8.17584 12.3669 8.035 12.2261C7.89416 12.0852 7.70314 12.0061 7.50397 12.0061C7.30479 12.0061 7.11377 12.0852 6.97294 12.2261C6.8321 12.3669 6.75297 12.558 6.75297 12.7571C6.75297 12.9563 6.8321 13.1474 6.97294 13.2882C7.11377 13.429 7.30479 13.5082 7.50397 13.5082ZM4 3.9558C4 2.86076 4.89499 1.93372 6.02998 2.00372C10.4769 2.27673 14.3769 3.77379 17.4319 6.69091C18.2989 7.51794 18.1279 8.86899 17.2289 9.55902C15.8299 10.639 14.4216 11.7068 13.0039 12.7621V14.5022C13.0039 15.2192 12.4489 16.0023 11.5039 16.0023C11.3347 16.0026 11.1665 15.9756 11.0059 15.9223V16.0053C11.0059 16.7183 10.4499 17.4963 9.50295 17.4963C8.74896 17.4963 8.25196 16.9993 8.07696 16.4463C7.52897 16.8563 6.92997 17.3023 6.39498 17.7003C5.40499 18.4374 4 17.7303 4 16.4993V3.9558ZM11.0049 14.5022C11.0049 14.7612 11.1999 15.0022 11.5039 15.0022C11.8089 15.0022 12.0039 14.7602 12.0039 14.5022V12.5081C12.004 12.4293 12.0227 12.3516 12.0585 12.2814C12.0943 12.2112 12.1462 12.1505 12.2099 12.1041C12.9899 11.5381 14.3179 10.5291 15.4939 9.63002C12.8009 7.06592 9.02595 5.54486 4.99999 5.51386V16.4993C5.00027 16.5918 5.02621 16.6824 5.07492 16.7611C5.12364 16.8398 5.19322 16.9034 5.27593 16.9448C5.35864 16.9863 5.45123 17.004 5.5434 16.9959C5.63556 16.9879 5.72369 16.9545 5.79798 16.8993C6.58398 16.3133 7.51097 15.6233 8.20696 15.1012C8.28125 15.0455 8.36958 15.0116 8.46206 15.0033C8.55454 14.9949 8.64751 15.0125 8.73056 15.054C8.81362 15.0956 8.88346 15.1594 8.93228 15.2384C8.9811 15.3174 9.00695 15.4084 9.00695 15.5013V16.0053C9.00695 16.2513 9.19695 16.4973 9.50295 16.4973C9.56847 16.4989 9.63364 16.4873 9.69462 16.4633C9.75559 16.4393 9.81112 16.4033 9.85793 16.3574C9.90474 16.3115 9.94186 16.2567 9.96712 16.1962C9.99237 16.1357 10.0052 16.0708 10.0049 16.0053V14.5022C10.0049 14.3696 10.0576 14.2424 10.1514 14.1486C10.2452 14.0549 10.3723 14.0022 10.5049 14.0022C10.6375 14.0022 10.7647 14.0549 10.8585 14.1486C10.9523 14.2424 11.0049 14.3696 11.0049 14.5022ZM16.6189 8.76699C17.0839 8.40997 17.1189 7.77395 16.7409 7.41294C13.8839 4.68583 10.2209 3.26277 5.96898 3.00076C5.44999 2.96876 4.99999 3.39478 4.99999 3.9558V4.51382C9.32695 4.54682 13.4019 6.20089 16.2969 9.014L16.6189 8.76699Z" fill="#711F1F"/>
</svg>
